<?xml version="1.0" encoding="UTF-8"?>
<svg width="1200pt" height="1200pt" version="1.1" viewBox="0 0 1200 1200" xmlns="http://www.w3.org/2000/svg">
 <path d="m412.26 421.31c-4.8281 0.28125-9.3281 2.4844-12.516 6.0938s-4.8281 8.2969-4.5 13.125l33.375 555.32c0.60938 9.5625 8.5312 17.016 18.094 17.016h1.125c4.7812-0.28125 9.2812-2.4375 12.469-6.0469 3.1875-3.6094 4.8281-8.3438 4.5-13.125l-33.375-555.37c-0.23438-4.8281-2.4375-9.3281-6.0469-12.516s-8.3438-4.8281-13.125-4.5z"/>
 <path d="m995.9 252.98c-10.219-23.953-33.75-39.469-59.766-39.469h-165.52v-24.797c-0.046875-37.922-30.797-68.672-68.719-68.719h-203.81c-37.922 0.046875-68.672 30.797-68.719 68.719v24.797h-165.52c-26.016 0-49.547 15.516-59.766 39.469l-21 49.219c-6.9375 16.219-5.25 34.875 4.5 49.641 9.75 14.719 26.203 23.578 43.875 23.578h18.469l51 616.78v0.046875c4.3594 49.453 45.656 87.469 95.297 87.75h407.53c49.641-0.28125 90.938-38.297 95.297-87.75l51-616.78h18.469c17.625 0 34.125-8.8594 43.828-23.578 9.75-14.766 11.438-33.375 4.5469-49.641zm-530.29-64.266c0.046875-17.906 14.531-32.391 32.438-32.391h203.86c17.906 0 32.391 14.484 32.438 32.391v24.797h-268.74zm397.31 800.58c-2.7188 30.656-28.359 54.281-59.156 54.422h-407.53c-30.797-0.14062-56.438-23.766-59.156-54.422l-50.719-613.82h627.28zm119.25-657.42h-0.046875c-2.9531 4.5938-8.1094 7.3594-13.594 7.3125h-737.06c-5.4844 0-10.594-2.7656-13.594-7.3125-3.0469-4.5938-3.5625-10.359-1.4062-15.422l21-49.219c4.5-10.547 14.906-17.438 26.391-17.438h672.28c11.484 0 21.891 6.8906 26.391 17.438l21 49.219c2.2031 5.0156 1.6875 10.828-1.4062 15.422z"/>
 <path d="m752.16 1012.9h1.125c9.5625 0 17.484-7.5 18.094-17.062l33.422-555.32h-0.046875c0.60938-10.031-6.9844-18.609-17.016-19.219-9.9844-0.5625-18.562 7.0312-19.172 17.016l-33.375 555.37c-0.32812 4.8281 1.3125 9.5156 4.5 13.125s7.6875 5.8125 12.469 6.0938z"/>
 <path d="m581.86 441.61v551.76c0 9.9844 8.1094 18.094 18.141 18.094s18.141-8.1094 18.141-18.094v-551.76c0-10.031-8.1094-18.141-18.141-18.141s-18.141 8.1094-18.141 18.141z"/>
</svg>
